<svg viewBox="0 0 167 317" fill="none" xmlns="http://www.w3.org/2000/svg">
<path d="M83.3333 150.509C46.5833 150.509 16.6667 120.623 16.6667 83.9122C16.6667 47.2009 46.5833 17.3157 83.3333 17.3157C120.083 17.3157 150 47.2009 150 83.9122C150 120.623 120.083 150.509 83.3333 150.509ZM83.3333 0.666626C37.25 0.666626 0 37.8774 0 83.9122C0 129.947 37.25 167.158 83.3333 167.158C129.417 167.158 166.667 129.947 166.667 83.9122C166.667 37.8774 129.417 0.666626 83.3333 0.666626ZM104.917 50.6139L83.3333 72.1745L61.75 50.6139L50 62.3516L71.5833 83.9122L50 105.473L61.75 117.21L83.3333 95.6498L104.917 117.21L116.667 105.473L95.0833 83.9122L116.667 62.3516L104.917 50.6139Z" fill="currentColor"/>
<path d="M96.4219 289.842V187.467H95.3672L56.625 202.373V214.256L83.4141 204.06V289.842H96.4219Z" fill="currentColor"/>
</svg>
