<svg viewBox="0 0 232 317" fill="none" xmlns="http://www.w3.org/2000/svg">
<path d="M116.333 150.984C79.5833 150.984 49.6667 121.004 49.6667 84.1761C49.6667 47.3484 79.5833 17.3685 116.333 17.3685C153.083 17.3685 183 47.3484 183 84.1761C183 121.004 153.083 150.984 116.333 150.984ZM116.333 0.666626C70.25 0.666626 33 37.9954 33 84.1761C33 130.357 70.25 167.686 116.333 167.686C162.417 167.686 199.667 130.357 199.667 84.1761C199.667 37.9954 162.417 0.666626 116.333 0.666626ZM137.917 50.7723L116.333 72.4013L94.75 50.7723L83 62.5472L104.583 84.1761L83 105.805L94.75 117.58L116.333 95.951L137.917 117.58L149.667 105.805L128.083 84.1761L149.667 62.5472L137.917 50.7723Z" fill="currentColor"/>
<path d="M62.2266 289.316H75.7969V288.191C74.9531 286.081 74.2969 283.62 73.8281 280.808C73.3594 277.948 73.125 275.253 73.125 272.722V237.355C73.125 233.089 72.3516 229.363 70.8047 226.175C69.2578 222.988 67.1484 220.316 64.4766 218.159C61.7578 216.05 58.5469 214.48 54.8438 213.448C51.1406 212.37 47.1328 211.831 42.8203 211.831C38.0859 211.831 33.8438 212.488 30.0938 213.8C26.3906 215.113 23.25 216.823 20.6719 218.933C18.0469 221.089 16.0312 223.503 14.625 226.175C13.2656 228.847 12.5625 231.566 12.5156 234.331H25.5938C25.5938 232.738 25.9688 231.214 26.7188 229.761C27.5156 228.261 28.6172 226.972 30.0234 225.894C31.4297 224.816 33.1406 223.948 35.1562 223.292C37.2188 222.636 39.5391 222.308 42.1172 222.308C44.8828 222.308 47.3672 222.659 49.5703 223.363C51.8203 224.066 53.7188 225.05 55.2656 226.316C56.8125 227.628 58.0078 229.198 58.8516 231.027C59.6953 232.855 60.1172 234.917 60.1172 237.214V243.191H45.9141C40.6172 243.191 35.8125 243.706 31.5 244.738C27.2344 245.769 23.5781 247.316 20.5312 249.378C17.4844 251.488 15.1172 254.113 13.4297 257.253C11.7891 260.394 10.9688 264.05 10.9688 268.222C10.9688 271.409 11.5781 274.386 12.7969 277.152C14.0625 279.87 15.8438 282.214 18.1406 284.183C20.3906 286.198 23.1328 287.792 26.3672 288.964C29.6484 290.136 33.3047 290.722 37.3359 290.722C39.8203 290.722 42.1641 290.464 44.3672 289.948C46.5703 289.433 48.6562 288.73 50.625 287.839C52.5469 286.948 54.3047 285.917 55.8984 284.745C57.5391 283.573 59.0156 282.331 60.3281 281.019C60.4688 282.613 60.6797 284.159 60.9609 285.659C61.2891 287.113 61.7109 288.331 62.2266 289.316ZM39.2344 279.402C36.7031 279.402 34.4766 279.073 32.5547 278.417C30.6328 277.761 29.0391 276.847 27.7734 275.675C26.5078 274.55 25.5469 273.191 24.8906 271.597C24.2812 270.003 23.9766 268.269 23.9766 266.394C23.9766 264.425 24.3281 262.667 25.0312 261.12C25.7812 259.573 26.8594 258.238 28.2656 257.113C30.2344 255.519 32.8828 254.347 36.2109 253.597C39.5859 252.8 43.5234 252.402 48.0234 252.402H60.1172V267.8C59.3672 269.3 58.3359 270.753 57.0234 272.159C55.7109 273.519 54.1641 274.738 52.3828 275.816C50.5547 276.894 48.5391 277.761 46.3359 278.417C44.1328 279.073 41.7656 279.402 39.2344 279.402ZM98.3789 199.316V208.749H119.941V279.941H98.3789V289.316H151.465V279.941H130.781V199.316H98.3789ZM170.449 199.316V208.749H192.012V279.941H170.449V289.316H223.535V279.941H202.852V199.316H170.449Z" fill="currentColor"/>
</svg>
