<svg viewBox="0 0 24 24" fill="none" xmlns="http://www.w3.org/2000/svg">
<path d="M20.8849 15.5588L18.5592 18.3468L16.2334 15.5588L16.6504 15.0625L18.2655 16.9985V12.0105H18.8528V16.9985L20.468 15.0589L20.8849 15.5588Z"/>
<path d="M0.320198 21.5997L10.8293 8.2841L9.29668 6.3145L11.6174 7.2993C11.1905 7.84025 10.5008 7.84025 10.0739 7.2993L9.29668 6.3145C8.86975 5.77356 8.86975 4.89972 9.29668 4.35877L12.3837 0.405709C12.8107 -0.135236 13.5003 -0.135236 13.9272 0.405709L14.7045 1.39051C15.1314 1.93145 15.1314 2.80529 14.7045 3.34623L13.9272 0.405709L15.4817 2.38918C15.9086 1.84823 16.5983 1.84823 17.0252 2.38918C17.4522 2.93012 17.4522 3.81783 17.0252 4.35877L18.5687 6.3145L16.248 5.3297C16.6749 4.78876 17.3755 4.78876 17.8025 5.3297L18.5687 6.3145C18.9957 6.85545 18.9957 7.74315 18.5687 8.2841L15.4817 12.1956C15.0548 12.7365 14.3542 12.7365 13.9272 12.1956L13.161 11.2246C12.7231 10.6837 12.7231 9.79597 13.161 9.25503L13.9272 12.1956L12.3837 10.2398L1.86372 23.5693C1.43679 24.1102 0.747128 24.1102 0.320198 23.5693C-0.106733 23.0283 -0.106733 22.1406 0.320198 21.5997ZM21.8106 19.8243C22.3913 19.8243 22.9482 20.1165 23.3587 20.6368C23.7693 21.157 24 21.8626 24 22.5983V23.9854H13.0531V22.5983C13.0531 21.8626 13.2837 21.157 13.6943 20.6368C14.1049 20.1165 14.6618 19.8243 15.2425 19.8243H21.8106Z" />
</svg>
