<svg width="613" height="571" viewBox="0 0 613 571" fill="none" xmlns="http://www.w3.org/2000/svg">
<path d="M533.4 370.17L474 436.5L414.6 370.17L425.25 358.361L466.5 404.424V285.75H481.5V404.424L522.75 358.278L533.4 370.17Z" fill="white"/>
<path d="M8.17781 513.892L276.578 197.093L237.436 150.233L296.708 173.663C285.804 186.533 268.19 186.533 257.287 173.663L237.436 150.233C226.532 137.363 226.532 116.572 237.436 103.702L316.279 9.6525C327.182 -3.2175 344.796 -3.2175 355.7 9.6525L375.55 33.0825C386.454 45.9525 386.454 66.7425 375.55 79.6125L355.7 9.6525L395.401 56.8425C406.304 43.9725 423.918 43.9725 434.822 56.8425C445.726 69.7125 445.726 90.8325 434.822 103.702L474.243 150.233L414.972 126.802C425.875 113.932 443.769 113.932 454.672 126.802L474.243 150.233C485.147 163.103 485.147 184.223 474.243 197.093L395.401 290.153C384.497 303.023 366.604 303.023 355.7 290.153L336.129 267.053C324.946 254.183 324.946 233.063 336.129 220.193L355.7 290.153L316.279 243.623L47.5991 560.752C36.6953 573.622 19.0816 573.622 8.17781 560.752C-2.72594 547.882 -2.72594 526.762 8.17781 513.892ZM557.04 471.652C571.87 471.652 586.093 478.606 596.579 490.983C607.066 503.361 612.957 520.148 612.957 537.652V570.652H333.374V537.652C333.374 520.148 339.265 503.361 349.751 490.983C360.238 478.606 374.46 471.652 389.29 471.652H557.04Z" fill="white"/>
</svg>
